<?xml version="1.0" encoding="UTF-8" standalone="no"?>
<!-- Created with Inkscape (http://www.inkscape.org/) -->

<svg
   xmlns:dc="http://purl.org/dc/elements/1.1/"
   xmlns:cc="http://creativecommons.org/ns#"
   xmlns:rdf="http://www.w3.org/1999/02/22-rdf-syntax-ns#"
   xmlns:svg="http://www.w3.org/2000/svg"
   xmlns="http://www.w3.org/2000/svg"
   xmlns:sodipodi="http://sodipodi.sourceforge.net/DTD/sodipodi-0.dtd"
   xmlns:inkscape="http://www.inkscape.org/namespaces/inkscape"
   width="422.19955"
   height="422.19955"
   id="svg2"
   version="1.1"
   inkscape:version="0.47 r22583"
   sodipodi:docname="New document 1">
  <defs
     id="defs4">
    <inkscape:perspective
       sodipodi:type="inkscape:persp3d"
       inkscape:vp_x="0 : 526.18109 : 1"
       inkscape:vp_y="0 : 1000 : 0"
       inkscape:vp_z="744.09448 : 526.18109 : 1"
       inkscape:persp3d-origin="372.04724 : 350.78739 : 1"
       id="perspective10" />
    <inkscape:perspective
       id="perspective4183"
       inkscape:persp3d-origin="0.5 : 0.33333333 : 1"
       inkscape:vp_z="1 : 0.5 : 1"
       inkscape:vp_y="0 : 1000 : 0"
       inkscape:vp_x="0 : 0.5 : 1"
       sodipodi:type="inkscape:persp3d" />
  </defs>
  <sodipodi:namedview
     id="base"
     pagecolor="#ffffff"
     bordercolor="#666666"
     borderopacity="1.0"
     inkscape:pageopacity="0.0"
     inkscape:pageshadow="2"
     inkscape:zoom="0.65552674"
     inkscape:cx="-230.71749"
     inkscape:cy="13.957183"
     inkscape:document-units="px"
     inkscape:current-layer="layer1"
     showgrid="false"
     inkscape:window-width="1440"
     inkscape:window-height="825"
     inkscape:window-x="0"
     inkscape:window-y="25"
     inkscape:window-maximized="1" />
  <metadata
     id="metadata7">
    <rdf:RDF>
      <cc:Work
         rdf:about="">
        <dc:format>image/svg+xml</dc:format>
        <dc:type
           rdf:resource="http://purl.org/dc/dcmitype/StillImage" />
        <dc:title></dc:title>
      </cc:Work>
    </rdf:RDF>
  </metadata>
  <g
     inkscape:label="Layer 1"
     inkscape:groupmode="layer"
     id="layer1"
     transform="translate(-548.59464,-226.48962)">
    <path
       inkscape:tile-y0="358.07647"
       inkscape:tile-x0="157.14286"
       inkscape:tile-h="148.57143"
       inkscape:tile-w="148.57143"
       inkscape:tile-cy="432.36218"
       inkscape:tile-cx="231.42857"
       d="m 305.71429,432.36218 c 0,41.02687 -33.25885,74.28572 -74.28572,74.28572 -41.02686,0 -74.28571,-33.25885 -74.28571,-74.28572 0,-41.02686 33.25885,-74.28571 74.28571,-74.28571 41.02687,0 74.28572,33.25885 74.28572,74.28571 z"
       sodipodi:ry="74.285713"
       sodipodi:rx="74.285713"
       sodipodi:cy="432.36218"
       sodipodi:cx="231.42857"
       id="path4150"
       style="fill:#4e9a06;stroke:#cc0000;stroke-width:3.54330707;stroke-linecap:butt;stroke-linejoin:miter;stroke-miterlimit:4;stroke-opacity:1;stroke-dasharray:none;stroke-dashoffset:0"
       sodipodi:type="arc"
       transform="matrix(0,-2.8179788,2.8179788,0,-986.95846,1084.522)" />
    <path
       sodipodi:type="arc"
       style="fill:none;stroke:#cc0000;stroke-width:3.54330707;stroke-linecap:butt;stroke-linejoin:miter;stroke-miterlimit:4;stroke-opacity:1;stroke-dasharray:none;stroke-dashoffset:0"
       id="path2816"
       sodipodi:cx="231.42857"
       sodipodi:cy="432.36218"
       sodipodi:rx="74.285713"
       sodipodi:ry="74.285713"
       d="m 305.71429,432.36218 c 0,41.02687 -33.25885,74.28572 -74.28572,74.28572 -41.02686,0 -74.28571,-33.25885 -74.28571,-74.28572 0,-41.02686 33.25885,-74.28571 74.28571,-74.28571 41.02687,0 74.28572,33.25885 74.28572,74.28571 z"
       inkscape:tile-cx="231.42857"
       inkscape:tile-cy="432.36218"
       inkscape:tile-w="148.57143"
       inkscape:tile-h="148.57143"
       inkscape:tile-x0="157.14286"
       inkscape:tile-y0="358.07647" />
    <path
       inkscape:tile-y0="358.07647"
       inkscape:tile-x0="157.14286"
       inkscape:tile-h="148.57143"
       inkscape:tile-w="148.57143"
       inkscape:tile-cy="432.36218"
       inkscape:tile-cx="231.42857"
       d="m 305.71429,432.36218 c 0,41.02687 -33.25885,74.28572 -74.28572,74.28572 -41.02686,0 -74.28571,-33.25885 -74.28571,-74.28572 0,-41.02686 33.25885,-74.28571 74.28571,-74.28571 41.02687,0 74.28572,33.25885 74.28572,74.28571 z"
       sodipodi:ry="74.285713"
       sodipodi:rx="74.285713"
       sodipodi:cy="432.36218"
       sodipodi:cx="231.42857"
       id="path3360"
       style="fill:none;stroke:#cc0000;stroke-width:3.54330707;stroke-linecap:butt;stroke-linejoin:miter;stroke-miterlimit:4;stroke-opacity:1;stroke-dasharray:none;stroke-dashoffset:0"
       sodipodi:type="arc"
       transform="translate(130,0)" />
    <path
       inkscape:tile-y0="358.07647"
       inkscape:tile-x0="157.14286"
       inkscape:tile-h="148.57143"
       inkscape:tile-w="148.57143"
       inkscape:tile-cy="432.36218"
       inkscape:tile-cx="231.42857"
       d="m 305.71429,432.36218 c 0,41.02687 -33.25885,74.28572 -74.28572,74.28572 -41.02686,0 -74.28571,-33.25885 -74.28571,-74.28572 0,-41.02686 33.25885,-74.28571 74.28571,-74.28571 41.02687,0 74.28572,33.25885 74.28572,74.28571 z"
       sodipodi:ry="74.285713"
       sodipodi:rx="74.285713"
       sodipodi:cy="432.36218"
       sodipodi:cx="231.42857"
       id="path3362"
       style="fill:none;stroke:#cc0000;stroke-width:3.54330707;stroke-linecap:butt;stroke-linejoin:miter;stroke-miterlimit:4;stroke-opacity:1;stroke-dasharray:none;stroke-dashoffset:0"
       sodipodi:type="arc"
       transform="translate(-130,0)" />
    <path
       inkscape:tile-y0="358.07647"
       inkscape:tile-x0="157.14286"
       inkscape:tile-h="148.57143"
       inkscape:tile-w="148.57143"
       inkscape:tile-cy="432.36218"
       inkscape:tile-cx="231.42857"
       d="m 305.71429,432.36218 c 0,41.02687 -33.25885,74.28572 -74.28572,74.28572 -41.02686,0 -74.28571,-33.25885 -74.28571,-74.28572 0,-41.02686 33.25885,-74.28571 74.28571,-74.28571 41.02687,0 74.28572,33.25885 74.28572,74.28571 z"
       sodipodi:ry="74.285713"
       sodipodi:rx="74.285713"
       sodipodi:cy="432.36218"
       sodipodi:cx="231.42857"
       id="path3364"
       style="fill:none;stroke:#cc0000;stroke-width:3.54330707;stroke-linecap:butt;stroke-linejoin:miter;stroke-miterlimit:4;stroke-opacity:1;stroke-dasharray:none;stroke-dashoffset:0"
       sodipodi:type="arc"
       transform="translate(0,-130)" />
    <path
       inkscape:tile-y0="358.07647"
       inkscape:tile-x0="157.14286"
       inkscape:tile-h="148.57143"
       inkscape:tile-w="148.57143"
       inkscape:tile-cy="432.36218"
       inkscape:tile-cx="231.42857"
       d="m 305.71429,432.36218 c 0,41.02687 -33.25885,74.28572 -74.28572,74.28572 -41.02686,0 -74.28571,-33.25885 -74.28571,-74.28572 0,-41.02686 33.25885,-74.28571 74.28571,-74.28571 41.02687,0 74.28572,33.25885 74.28572,74.28571 z"
       sodipodi:ry="74.285713"
       sodipodi:rx="74.285713"
       sodipodi:cy="432.36218"
       sodipodi:cx="231.42857"
       id="path3366"
       style="fill:none;stroke:#cc0000;stroke-width:3.54330707;stroke-linecap:butt;stroke-linejoin:miter;stroke-miterlimit:4;stroke-opacity:1;stroke-dasharray:none;stroke-dashoffset:0"
       sodipodi:type="arc"
       transform="translate(0,130)" />
    <path
       inkscape:tile-y0="358.07647"
       inkscape:tile-x0="157.14286"
       inkscape:tile-h="148.57143"
       inkscape:tile-w="148.57143"
       inkscape:tile-cy="432.36218"
       inkscape:tile-cx="231.42857"
       d="m 305.71429,432.36218 c 0,41.02687 -33.25885,74.28572 -74.28572,74.28572 -41.02686,0 -74.28571,-33.25885 -74.28571,-74.28572 0,-41.02686 33.25885,-74.28571 74.28571,-74.28571 41.02687,0 74.28572,33.25885 74.28572,74.28571 z"
       sodipodi:ry="74.285713"
       sodipodi:rx="74.285713"
       sodipodi:cy="432.36218"
       sodipodi:cx="231.42857"
       id="path3368"
       style="fill:none;stroke:#cc0000;stroke-width:17.71653557;stroke-linecap:butt;stroke-linejoin:miter;stroke-miterlimit:4;stroke-opacity:1;stroke-dasharray:none;stroke-dashoffset:0"
       sodipodi:type="arc"
       transform="matrix(0.2,0,0,0.2,225.14286,385.88974)" />
    <path
       transform="matrix(0.2,0,0,0.2,225.14286,305.88974)"
       sodipodi:type="arc"
       style="fill:none;stroke:#cc0000;stroke-width:17.71653557;stroke-linecap:butt;stroke-linejoin:miter;stroke-miterlimit:4;stroke-opacity:1;stroke-dasharray:none;stroke-dashoffset:0"
       id="path4142"
       sodipodi:cx="231.42857"
       sodipodi:cy="432.36218"
       sodipodi:rx="74.285713"
       sodipodi:ry="74.285713"
       d="m 305.71429,432.36218 c 0,41.02687 -33.25885,74.28572 -74.28572,74.28572 -41.02686,0 -74.28571,-33.25885 -74.28571,-74.28572 0,-41.02686 33.25885,-74.28571 74.28571,-74.28571 41.02687,0 74.28572,33.25885 74.28572,74.28571 z"
       inkscape:tile-cx="231.42857"
       inkscape:tile-cy="432.36218"
       inkscape:tile-w="148.57143"
       inkscape:tile-h="148.57143"
       inkscape:tile-x0="157.14286"
       inkscape:tile-y0="358.07647" />
    <path
       inkscape:tile-y0="358.07647"
       inkscape:tile-x0="157.14286"
       inkscape:tile-h="148.57143"
       inkscape:tile-w="148.57143"
       inkscape:tile-cy="432.36218"
       inkscape:tile-cx="231.42857"
       d="m 305.71429,432.36218 c 0,41.02687 -33.25885,74.28572 -74.28572,74.28572 -41.02686,0 -74.28571,-33.25885 -74.28571,-74.28572 0,-41.02686 33.25885,-74.28571 74.28571,-74.28571 41.02687,0 74.28572,33.25885 74.28572,74.28571 z"
       sodipodi:ry="74.285713"
       sodipodi:rx="74.285713"
       sodipodi:cy="432.36218"
       sodipodi:cx="231.42857"
       id="path4144"
       style="fill:none;stroke:#cc0000;stroke-width:17.71653557;stroke-linecap:butt;stroke-linejoin:miter;stroke-miterlimit:4;stroke-opacity:1;stroke-dasharray:none;stroke-dashoffset:0"
       sodipodi:type="arc"
       transform="matrix(0.2,0,0,0.2,145.14286,385.88974)" />
    <path
       transform="matrix(0.2,0,0,0.2,145.14286,305.88974)"
       sodipodi:type="arc"
       style="fill:none;stroke:#cc0000;stroke-width:17.71653557;stroke-linecap:butt;stroke-linejoin:miter;stroke-miterlimit:4;stroke-opacity:1;stroke-dasharray:none;stroke-dashoffset:0"
       id="path4148"
       sodipodi:cx="231.42857"
       sodipodi:cy="432.36218"
       sodipodi:rx="74.285713"
       sodipodi:ry="74.285713"
       d="m 305.71429,432.36218 c 0,41.02687 -33.25885,74.28572 -74.28572,74.28572 -41.02686,0 -74.28571,-33.25885 -74.28571,-74.28572 0,-41.02686 33.25885,-74.28571 74.28571,-74.28571 41.02687,0 74.28572,33.25885 74.28572,74.28571 z"
       inkscape:tile-cx="231.42857"
       inkscape:tile-cy="432.36218"
       inkscape:tile-w="148.57143"
       inkscape:tile-h="148.57143"
       inkscape:tile-x0="157.14286"
       inkscape:tile-y0="358.07647" />
    <path
       id="path4148-8"
       style="fill:#a40000;stroke:#a40000;stroke-width:3.54330707000000000;stroke-linecap:butt;stroke-linejoin:miter;stroke-miterlimit:4;stroke-opacity:1;stroke-dashoffset:0"
       d="m 734.55826,397.5922 c 0,8.20537 -6.65177,14.85714 -14.85714,14.85714 -8.20537,0 -14.85714,-6.65177 -14.85714,-14.85714 0,-8.20537 6.65177,-14.85714 14.85714,-14.85714 8.20537,0 14.85714,6.65177 14.85714,14.85714 z m 0,80 c 0,8.20537 -6.65177,14.85714 -14.85714,14.85714 -8.20537,0 -14.85714,-6.65177 -14.85714,-14.85714 0,-8.20537 6.65177,-14.85714 14.85714,-14.85714 8.20537,0 14.85714,6.65177 14.85714,14.85714 z m 80,-80 c 0,8.20537 -6.65177,14.85714 -14.85714,14.85714 -8.20537,0 -14.85714,-6.65177 -14.85714,-14.85714 0,-8.20537 6.65177,-14.85714 14.85714,-14.85714 8.20537,0 14.85714,6.65177 14.85714,14.85714 z m 0,80 c 0,8.20537 -6.65177,14.85714 -14.85714,14.85714 -8.20537,0 -14.85714,-6.65177 -14.85714,-14.85714 0,-8.20537 6.65177,-14.85714 14.85714,-14.85714 8.20537,0 14.85714,6.65177 14.85714,14.85714 z M 759.71004,228.26127 c -115.61284,0 -209.34375,93.73091 -209.34375,209.34375 0,115.61284 93.73091,209.3125 209.34375,209.3125 115.61284,0 209.3125,-93.69966 209.3125,-209.3125 0,-115.61284 -93.69966,-209.34375 -209.3125,-209.34375 z m 0,5.03125 c 41.02687,0 74.28125,33.28563 74.28125,74.3125 0,27.97663 -15.46587,52.33183 -38.3125,65 l 29.03125,29.03125 c 12.66817,-22.85587 37.02337,-38.34375 65,-38.34375 41.02688,0 74.28126,33.28563 74.28126,74.3125 0,41.02687 -33.25438,74.28126 -74.28126,74.28126 -27.98631,0 -52.33554,-15.48412 -65,-38.34376 l -29.03125,29.03125 c 22.84663,12.67741 38.3125,37.05463 38.3125,65.03125 0,41.02688 -33.25438,74.28126 -74.28125,74.28126 -41.02687,0 -74.28125,-33.25438 -74.28125,-74.28126 0,-27.97112 15.47329,-52.32046 38.3125,-65 l -29.03125,-29.03125 c -12.66817,22.84663 -37.02337,38.31251 -65,38.31251 -41.02687,0 -74.28125,-33.25439 -74.28125,-74.28126 0,-41.02687 33.25438,-74.3125 74.28125,-74.3125 27.97663,0 52.33183,15.48788 65,38.34375 l 29.03125,-29.03125 c -22.84663,-12.66817 -38.3125,-37.02337 -38.3125,-65 0,-41.02687 33.25438,-74.3125 74.28125,-74.3125 z"
       sodipodi:nodetypes="csssccsssccsssccsssccsssccsccsssccsssccsssccsc" />
  </g>
</svg>
